<mxfile host="app.diagrams.net" modified="2023-09-25T18:07:06.394Z" agent="Mozilla/5.0 (Windows NT 10.0; Win64; x64; rv:102.0) Gecko/20100101 Firefox/102.0" version="21.7.5" etag="QUBXuhzTlBznVdJihLXc" type="github">
  <diagram name="Page-1" id="lp2oBkrCbPKhdw8PO_-7">
    <mxGraphModel>
      <root>
        <mxCell id="0" />
        <mxCell id="1" parent="0" />
      </root>
    </mxGraphModel>
  </diagram>
</mxfile>
